<svg version="1.1" id="Layer_1" xmlns="http://www.w3.org/2000/svg" xmlns:xlink="http://www.w3.org/1999/xlink" x="0px" y="0px"
	 width="100%" viewBox="0 0 352 352" enable-background="new 0 0 352 352" xml:space="preserve">
<path fill="#000000" opacity="1.000000" stroke="none" 
	d="
M128.394073,303.608582 
	C123.864006,304.121948 120.125351,303.056183 116.637383,300.811157 
	C106.245674,294.122559 96.434578,286.678070 87.518318,278.119385 
	C79.443718,270.368591 79.056732,264.834717 85.589745,255.822113 
	C91.137535,248.168640 91.069298,248.219620 85.226456,240.403244 
	C82.337944,236.539078 79.684845,232.492157 77.053894,228.444305 
	C74.756813,224.910141 71.628616,223.235046 67.419601,223.334656 
	C63.757004,223.421356 60.088646,223.396088 56.425655,223.305771 
	C50.052891,223.148651 45.046963,220.259933 42.233696,214.647308 
	C36.295975,202.801254 32.950951,190.082153 31.002439,177.029221 
	C30.499197,173.658035 32.148972,170.580780 34.443130,167.951614 
	C41.340015,160.047653 48.043739,151.969437 55.117561,144.228561 
	C57.736240,141.362946 57.585709,139.677917 54.532684,137.548309 
	C51.121338,135.168777 47.854221,132.568497 44.638599,129.925278 
	C38.224197,124.652657 37.005772,117.836853 40.669334,110.294250 
	C45.996571,99.326454 54.478931,90.756294 62.166470,81.585709 
	C67.300430,75.461327 72.524025,69.402588 77.925781,63.514736 
	C83.926033,56.974525 89.950630,56.356232 97.487106,61.258316 
	C100.112816,62.966206 102.568275,64.935822 105.450005,67.040436 
	C111.064156,60.554062 116.478088,54.298553 121.892555,48.043510 
	C124.834595,44.644722 127.789902,41.257313 130.715881,37.844753 
	C132.783127,35.433723 135.497665,34.228973 138.538528,33.825687 
	C149.650742,32.351948 160.783188,32.522293 171.889206,33.840019 
	C179.176834,34.704685 184.157776,38.746929 186.576965,45.671459 
	C188.000031,49.744720 189.088989,53.935822 190.293320,58.084045 
	C191.410736,61.932907 193.978760,64.226166 197.711456,65.530586 
	C203.521103,67.560822 209.311523,69.659538 215.031296,71.927940 
	C217.982529,73.098366 220.154587,72.667206 221.891678,69.959290 
	C223.149933,67.997841 224.507782,66.098083 225.870010,64.205940 
	C230.283142,58.076023 236.239502,56.145466 242.871735,59.829464 
	C255.891037,67.061256 267.627350,76.151527 277.783081,87.062790 
	C282.501251,92.131981 282.376129,97.670074 278.568359,103.559273 
	C271.822662,113.992355 272.876892,113.409233 278.885468,124.272247 
	C285.224884,135.733414 293.253937,140.397552 306.198059,138.897552 
	C313.256165,138.079620 318.303589,142.847687 321.198761,149.312531 
	C326.055115,160.156860 328.987732,171.585602 331.172272,183.218063 
	C331.923279,187.217194 330.825775,190.736160 328.092651,193.842484 
	C321.494537,201.341614 314.992889,208.925690 308.455414,216.478165 
	C307.161743,217.972687 305.605896,219.282059 304.942474,221.334198 
	C306.253754,224.028000 308.964783,225.196732 311.102356,226.972351 
	C313.916901,229.310349 316.975220,231.398773 319.547302,233.975266 
	C324.363281,238.799393 325.163208,244.228577 322.248566,250.423050 
	C318.601135,258.174835 313.483887,264.915710 307.836761,271.318054 
	C299.797058,280.433014 292.049988,289.809235 283.903259,298.825653 
	C278.360260,304.960327 271.548462,305.423523 264.673065,300.668427 
	C262.086426,298.879486 259.637390,296.891571 256.870667,294.801758 
	C248.900696,303.979187 240.949936,312.868286 233.327942,322.030945 
	C229.856491,326.204071 225.765915,327.911530 220.441269,328.458618 
	C211.099152,329.418457 201.848602,329.062958 192.538727,328.355103 
	C183.690979,327.682343 177.075912,323.631317 175.495636,314.952332 
	C173.263428,302.692780 167.104965,296.071716 154.838760,292.923920 
	C142.880829,289.855225 143.122589,288.776978 135.588760,298.877777 
	C133.818176,301.251678 131.763855,303.021332 128.394073,303.608582 
M236.956726,108.539894 
	C230.612793,103.955009 224.322861,99.292686 217.902786,94.817024 
	C214.558853,92.485870 211.273727,92.462120 208.981705,96.405998 
	C202.222397,108.036674 198.296371,110.602272 182.514450,103.752899 
	C181.903305,103.487663 181.305969,103.112213 180.665710,103.003983 
	C166.068405,100.536591 158.368805,91.667473 156.375656,77.244667 
	C155.624634,71.810143 151.644485,69.255089 146.652313,68.689217 
	C137.364853,67.636467 128.020309,67.735359 118.709930,68.544685 
	C114.996605,68.867470 113.446167,71.016823 114.522598,74.790741 
	C115.572464,78.471535 116.594208,82.161758 117.542862,85.869705 
	C119.277412,92.649437 117.078003,97.058250 110.662361,99.925873 
	C107.016739,101.555374 103.259697,102.999390 99.794395,104.954987 
	C93.012611,108.782181 86.787270,108.145859 80.782677,103.406509 
	C77.383682,100.723740 73.916397,98.127365 70.523888,95.436562 
	C66.922668,92.580200 63.808811,92.633102 60.531227,96.214836 
	C55.768917,101.419067 51.709900,107.087463 48.377243,113.256729 
	C45.636509,118.330269 46.258118,120.648483 50.889328,124.369675 
	C54.784554,127.499489 58.842018,130.431931 62.669079,133.640884 
	C67.246552,137.479050 68.996422,142.586960 68.086212,148.406052 
	C67.341736,153.165619 66.433289,157.863266 66.231125,162.718964 
	C65.948807,169.499802 61.754112,173.178223 54.832458,173.318832 
	C51.500835,173.386520 48.166298,173.311401 44.834717,173.380173 
	C39.677620,173.486603 38.688637,174.747772 39.684093,179.838272 
	C41.089886,187.027084 42.990459,194.086731 45.305920,201.033768 
	C49.701069,214.220505 50.657917,214.909607 64.396484,214.956268 
	C65.562874,214.960220 66.729843,214.959427 67.895477,214.995392 
	C74.898140,215.211365 80.316322,218.091782 84.066864,224.176575 
	C86.510345,228.140839 89.173096,231.991058 91.992561,235.698471 
	C100.302795,246.625854 100.407814,249.383698 92.451981,260.336884 
	C88.168343,266.234375 88.379578,267.944702 93.840103,272.902191 
	C101.005882,279.407837 108.588181,285.375580 116.585777,290.826813 
	C126.397652,297.514618 126.383011,297.536072 133.250397,287.885803 
	C138.407623,280.638702 142.479782,279.488953 150.831146,282.710541 
	C156.264984,284.806671 161.738464,286.808685 167.244843,288.705811 
	C173.497864,290.860107 177.823547,294.744690 179.597931,301.298920 
	C180.640701,305.150726 182.019196,308.910492 183.127243,312.746155 
	C184.142044,316.259125 186.337677,318.812439 189.827591,319.468292 
	C200.377151,321.450745 211.007767,321.165436 221.633896,319.926331 
	C225.275818,319.501648 225.943222,317.627014 224.878113,314.355530 
	C223.592010,310.405304 222.513885,306.377258 221.552795,302.333649 
	C220.094437,296.197876 222.537979,291.450653 228.175415,288.903198 
	C232.266586,287.054443 236.434479,285.332367 240.366531,283.184662 
	C246.357315,279.912445 251.886169,280.634308 257.180634,284.508545 
	C261.212128,287.458588 265.139557,290.551758 269.089874,293.611450 
	C272.564484,296.302704 275.627686,296.264618 278.619629,292.716309 
	C283.249878,287.224945 287.318787,281.393677 290.987152,275.205109 
	C293.615540,270.771027 292.451660,267.680878 288.879059,264.836792 
	C285.230225,261.931976 281.481812,259.150970 277.863525,256.209320 
	C273.380951,252.564957 270.195007,247.952820 270.978668,242.021652 
	C271.674286,236.756744 272.505676,231.528656 272.950073,226.216156 
	C273.544342,219.112961 276.646942,216.201141 283.697845,215.478622 
	C287.334930,215.105911 291.012695,214.926208 294.667145,214.981995 
	C298.582489,215.041733 300.380768,213.415207 299.572266,209.542007 
	C297.428375,199.271469 295.100189,189.048431 290.605103,179.471100 
	C288.697021,175.405624 285.392609,173.180679 281.074524,173.452393 
	C258.903900,174.847504 259.275055,170.469299 249.219879,155.583862 
	C249.033340,155.307724 248.854477,155.026016 248.659348,154.756104 
	C238.523193,140.735474 238.455399,140.689941 248.019470,126.515450 
	C250.329758,123.091492 250.034363,120.366417 247.133377,117.711502 
	C243.939499,114.788544 240.710236,111.904266 236.956726,108.539894 
z"/>
<path fill="#000000" opacity="1.000000" stroke="none" 
	d="
M197.843201,144.118301 
	C218.538132,158.533386 232.716797,177.143417 236.719254,202.058441 
	C242.463287,237.814789 216.733231,261.034119 184.541672,259.701172 
	C147.479507,258.166504 112.980049,227.164612 104.287262,195.219345 
	C100.980011,183.065460 100.225739,170.936386 104.900536,158.963379 
	C111.578110,141.860840 124.519836,132.455185 142.327682,129.745117 
	C162.649628,126.652458 180.781738,132.789612 197.843201,144.118301 
M219.991028,179.440674 
	C208.707489,160.244431 192.419449,147.220352 171.317459,140.271729 
	C160.335999,136.655670 149.194839,135.992416 137.905243,139.099091 
	C135.036133,139.888611 133.509735,141.518936 133.434021,144.293213 
	C133.284607,149.768127 132.703339,155.278793 134.002777,160.704010 
	C140.900925,189.504120 159.091858,208.494461 185.805801,219.888031 
	C196.905502,224.622101 208.544937,226.203506 220.486954,223.811615 
	C228.725769,222.161438 229.627182,221.249802 229.531540,212.858948 
	C229.398392,201.179047 226.391525,190.171860 219.991028,179.440674 
z"/>
</svg>