<svg id="Capa_1" data-name="Capa 1" xmlns="http://www.w3.org/2000/svg" viewBox="0 0 1093.25 2186.53"><defs><style>.cls-1{fill:#fca97a;}.cls-2{fill:#aecee4;}.cls-3{fill:#090518;}.cls-4{fill:#11182f;}.cls-5{fill:#c3d2dc;}.cls-6{fill:#0b0b10;}.cls-7{fill:#718fc2;}.cls-8{fill:#344477;}.cls-9{fill:#121934;}.cls-10{fill:#5870b1;}.cls-11{fill:#d0e6f1;}.cls-12{fill:#667b8e;}.cls-13{fill:#6b181e;}.cls-14{fill:#ee8555;}.cls-15{fill:#1c0c10;}.cls-16{fill:#b15135;}.cls-17{fill:#fc9674;}.cls-18{fill:#d47b52;}.cls-19{fill:#d63d43;}.cls-20{fill:#f7dbdb;}</style></defs><path class="cls-1" d="M1415,988.17c-6.13-19.31-17.61-55.36-29.07-90.76-.07-.23-.15-.46-.22-.69q-1.17-3.6-2.33-7.19l-.57-1.76c-3.32-10.22-6.59-20.24-9.69-29.63-.08-.24-.16-.48-.23-.72l-2-6.07c-.15-.47-.32-1-.47-1.43l-1.64-4.94-.86-2.56c-.44-1.33-.86-2.6-1.29-3.88-.36-1.07-.72-2.13-1.06-3.17l-1.14-3.36-.06-.19a158.78,158.78,0,0,0,15.36-7.12c-54-127.66-104.58-221-140.64-233.5a555.44,555.44,0,0,0-72.1-19.58l-66.35-19.42c-10.81-11.08-28.94-27.86-31.59-27.86-.93-11.85-1.55-22-2.22-33,17.85-9.52,74.07-84.85,79.47-112.86,18-93.1-29.17-144.83-29.17-144.83l0,.06c-14-16.15-33.81-18.83-33.81-18.83s-15.83-29.34-32-39.85-54-13.14-88.9-12.7-77.51,17.07-97.22,39.39a186.34,186.34,0,0,0-20.43,27.35V229c-13.41,19-22.49,52.42-24.24,72.13s19.71,72.69,22.19,70.48c0,0,0,0,0,0,.53,7.38,1.21,14.71,2,21.88h0c0,.14,0,.26,0,.39.5,4.33,1,8.61,1.66,12.78,0,0,0,.06,0,.09.56,3.86,1.18,7.6,1.83,11.26.17,1,.35,1.91.53,2.86q.78,4.22,1.65,8.22c.21.95.41,1.92.62,2.85.78,3.41,1.59,6.72,2.45,9.81,0,0,1.24,5,6,12.65,9.67,16.59,33.12,45.33,84.18,60.45-.33,7.33-.75,14.56-1.3,21.24,0,0-25.37,9.14-29.31,16.3-26.64,5.44-63.75,13.67-92.7,26.64v0S766,600,739.65,626.53H345.42c-7.27,0-12,5.82-10.5,12.93l.22,1h0l84.45,261.58c1.27,6,6.65,11.13,12.7,12.52.45,4.9,1.14,9.77,2.06,14.57H422.3v48.47h29.38c17.65,32.94,43.36,55.52,61.89,53.84,0,0,209.69,44.39,273,28.46.87,11.56,2.47,16.85,2.52,17a2.22,2.22,0,0,0,2.37,1.52c4.18,43.54,11.56,75.75,23.9,84.35l-.91,3.22c-8.58,10.78-74,124.15-5.53,1021.66l10.53.67c-2.38,5.49-5.27,11.93-8.53,18.79a47.89,47.89,0,0,0-9.31-7c-15.95,17.83-84.51,66.25-147.89,93.41-34.89,14.94-15.57,40-15.57,40H761.61c44.48-5.56,64.5-12.23,64.5-12.23v12.23H915c11-35.58,0-90.08,0-90.08h0c1.25-13.17,3.39-35,5.09-48.79l20.38,1.3c14.13-107.72,44.64-604.64,53.91-706.61a3.29,3.29,0,0,0,.63.07h0c4.88,50,63.31,647.7,70,706.55l13.48-.13v47.56c-9.06,4.66-11.29,39.54-11.29,39.54s-7.35,56.72,4.88,60.06,174.87,11.42,180.43-.81,5.7-32.83-14.46-46.35c-38.36-25.76-53.58-41-66.58-65.43l2.59-35.42,20.93-.19S1224.55,1422,1211.33,1335c-9.43-62-24-122-31.65-151.28l-1-6.87-4-14c30.27-11.88,37.59-69.52,39.69-132.89,58.67,28.57,128.51,59.79,154.78,58.33,47.29-2.63,55.67-44.35,58.3-62.35C1429.43,1012.32,1424.9,998.84,1415,988.17Zm-716.13-59H534.7V915h164ZM448.25,915h7.21c.35,5.42.68,10.32.9,14.16H452.8C451.47,925.2,449.9,920.21,448.25,915Zm26.91,0h3.69c.11,5.44.3,10.34.48,14.16h-1.16C477.39,925.36,476.36,920.46,475.16,915Zm20.76,0h.52v14.16h-.11C496.25,925.36,496.13,920.46,495.92,915Zm67.69,63.8a5.42,5.42,0,0,0-.78-1.17h27.48C577.9,978.39,568.06,978.86,563.61,978.82ZM1216,927.57c.43-15,1.15-29,2.5-41.16.9-8.07,1.79-16,2.68-23.8,2.09-.22,4.18-.43,6.27-.67l2.81,4.92.8,1.38c.56,1,1.12,2,1.71,3l.88,1.53,1.55,2.69c.41.69.81,1.39,1.22,2.09l.5.87h0c11.08,19.1,24.71,42.07,37.14,61.48C1253.71,935.32,1233.67,931.13,1216,927.57Z" transform="translate(-334.65 -162.3)"/><path class="cls-2" d="M915,2243.57c1.25-13.17,3.39-35,5.09-48.79l-100.6-6.38c-2.38,5.49-5.27,11.93-8.53,18.79a47.89,47.89,0,0,0-9.31-7c-15.95,17.83-84.51,66.25-147.89,93.41-34.89,14.94-15.57,40-15.57,40H761.61c44.48-5.56,64.5-12.23,64.5-12.23v12.23H915c11-35.58,0-90.08,0-90.08Z" transform="translate(-334.65 -162.3)"/><path class="cls-2" d="M1238.1,2296c-38.36-25.76-53.58-41-66.58-65.43l-.25,0h0l.25,0,2.59-35.42-95.57.85v47.56h0c-9.06,4.66-11.29,39.54-11.29,39.54s-7.35,56.72,4.88,60.06,174.87,11.42,180.43-.81S1258.26,2309.47,1238.1,2296Z" transform="translate(-334.65 -162.3)"/><path class="cls-3" d="M827.35,2232.84a61.45,61.45,0,0,0-16.4-25.65,47.89,47.89,0,0,0-9.31-7c-15.95,17.83-84.51,66.25-147.89,93.41-34.89,14.94-15.57,40-15.57,40H761.61c44.48-5.56,64.5-12.23,64.5-12.23v12.23H915c11-35.58,0-90.08,0-90.08h0C854.46,2260.26,827.35,2232.84,827.35,2232.84Z" transform="translate(-334.65 -162.3)"/><path class="cls-3" d="M1099.67,2268.61c-15.57,4.45-20-25.61-20-25.61a4.83,4.83,0,0,0-1.11.51c-9.06,4.66-11.29,39.54-11.29,39.54s-7.35,56.72,4.88,60.06,174.87,11.42,180.43-.81,5.7-32.83-14.46-46.35c-38.36-25.76-53.58-41-66.58-65.43h0s-21.42,2.51-42.23,5.84C1116.07,2238.47,1115.23,2264.16,1099.67,2268.61Z" transform="translate(-334.65 -162.3)"/><path class="cls-4" d="M1211.33,1335c-9.43-62-24-122-31.65-151.28l-1-6.87-4-14H815.39l-.91,3.22c-8.58,10.78-74,124.15-5.53,1021.66l10.53.67,100.6,6.38,20.38,1.3c14.13-107.72,44.64-604.64,53.91-706.61a3.29,3.29,0,0,0,.63.07h0c4.88,50,63.31,647.7,70,706.55l13.48-.13,95.57-.85,20.93-.19S1224.55,1422,1211.33,1335Z" transform="translate(-334.65 -162.3)"/><polygon class="cls-3" points="761.94 1020.9 845.03 1021.45 844.07 1014.57 840.02 1000.55 761.94 1000.55 761.94 1020.9"/><polygon class="cls-3" points="539.16 1019.44 538.3 1019.44 600.83 1019.85 600.83 1000.55 539.16 1000.55 539.16 1019.44"/><polygon class="cls-3" points="510.12 1019.26 510.12 1000.55 480.74 1000.55 479.84 1003.77 475.55 1019.03 510.12 1019.26"/><polygon class="cls-3" points="649.62 1020.17 739.98 1020.76 739.98 1000.55 649.62 1000.55 649.62 1020.17"/><rect class="cls-5" x="600.83" y="1000.55" width="48.79" height="19.62"/><path class="cls-6" d="M1187.28,2152.05h-116a3.7,3.7,0,1,0,0,7.39h116a3.7,3.7,0,1,0,0-7.39Z" transform="translate(-334.65 -162.3)"/><path class="cls-6" d="M811.1,2151.41a3.7,3.7,0,0,0-.55,7.38l120.44,9a3.7,3.7,0,0,0,.55-7.38Z" transform="translate(-334.65 -162.3)"/><path class="cls-6" d="M1108,1197.28s12.07,26.23,29.38,57.9,39.81,68.78,61.13,91a3.44,3.44,0,0,0,5-4.77c-20.43-21.22-42.89-58.09-60.06-89.52-8.59-15.72-15.89-30.1-21-40.54-2.57-5.22-4.61-9.46-6-12.39s-2.13-4.53-2.13-4.54a3.43,3.43,0,0,0-6.24,2.87Z" transform="translate(-334.65 -162.3)"/><path class="cls-6" d="M842.16,1192.52A3.45,3.45,0,0,0,838,1195h0s-1.87,7.2-4.93,18.73c-9.16,34.58-29,108.24-40.68,143.15a3.44,3.44,0,0,0,6.52,2.19c15.76-47.1,45.73-162.29,45.74-162.34A3.44,3.44,0,0,0,842.16,1192.52Z" transform="translate(-334.65 -162.3)"/><path class="cls-6" d="M998.1,1485.8,988,1376.73h44.75a3.44,3.44,0,1,0,0-6.87H980.72l7-173.87a3.43,3.43,0,1,0-6.86-.28l-7,174.15h-.05c-4.52-13.71-7.45-33.84-9.15-55.52-1.8-22.89-2.33-47.49-2.33-68.28,0-14.32.25-26.85.5-35.78s.5-14.26.5-14.27a3.44,3.44,0,0,0-6.87-.32h0s-1,21.57-1,50.37c0,20.91.53,45.65,2.35,68.82,1.66,20.91,4.35,40.43,8.79,55h-31.1a3.44,3.44,0,1,0,0,6.87h45.66l10.12,109.7a3.38,3.38,0,0,0,3.11,3,3.29,3.29,0,0,0,.63.07h0A3.43,3.43,0,0,0,998.1,1485.8Z" transform="translate(-334.65 -162.3)"/><path class="cls-7" d="M452.8,929.18c1.92,5.72,3.33,9.32,3.68,8,.21-.77.11-3.73-.12-8Z" transform="translate(-334.65 -162.3)"/><path class="cls-7" d="M478.17,929.18c1,4.91,1.61,8,1.61,8s-.21-3.1-.45-8Z" transform="translate(-334.65 -162.3)"/><path class="cls-7" d="M441.31,954.41a166.85,166.85,0,0,1-7-25.23H422.3v48.47h29.38c-1.35-2.53-2.67-5.11-3.92-7.76Q444.22,962.42,441.31,954.41Z" transform="translate(-334.65 -162.3)"/><path class="cls-7" d="M1130.26,929.18H779.67V915H886.94c7.27,0,12-5.82,10.5-12.93L842.3,639.46a17,17,0,0,0-15.93-12.93H345.42c-7.27,0-12,5.82-10.5,12.93l.22,1h0l84.45,261.58c1.27,6,6.65,11.13,12.7,12.52-.27-2.88-.48-5.77-.57-8.68,0,0,1.46-23.15,6.12-18.49,2.29,2.29,6.54,15.37,10.41,27.58h7.21c-1.46-22.6-3.22-54,2.18-52.76,5.18,1.19,12.71,31.09,17.52,52.76h3.69c-.43-20.41.24-48.2,6.76-52.8,6.88-4.86,9.39,29,10.31,52.8h.52v14.16h-.11c.09,4.92.11,8,.11,8s1-14.68,3.08-29.56c2.15-15.65,5.4-31.52,9.71-30.69,3.7.72,6.14,14.52,7.87,30.69,1.44,13.4,2.41,28.42,3.2,39,.23,3,.44,5.61.64,7.75.33,3.41.64,5.61,1,6,1.32,1.67,15.43,5.13,26.93,9.45,6.32,2.38,11.81,5,14,7.76h567.43c13.39,0,36.72,5.6,36.72-7.76S1153.63,944.5,1130.26,929.18ZM534.7,915H741.43v14.16H534.7Z" transform="translate(-334.65 -162.3)"/><path class="cls-8" d="M517.1,907.64c1.44,13.4,2.41,28.42,3.2,39h14.4v-39Z" transform="translate(-334.65 -162.3)"/><rect class="cls-9" x="187.36" y="745.34" width="12.68" height="39.02"/><rect class="cls-8" x="406.78" y="745.34" width="38.25" height="39.02"/><path class="cls-10" d="M810,640.51a17,17,0,0,1,15.93,12.93L880.82,915h6.12c7.27,0,12-5.82,10.5-12.93L842.3,639.46a17,17,0,0,0-15.93-12.93H345.42c-7.27,0-12,5.82-10.5,12.93l.22,1Z" transform="translate(-334.65 -162.3)"/><rect class="cls-9" x="515.7" y="784.37" width="18.84" height="30.98"/><rect class="cls-9" x="486.08" y="784.37" width="18.85" height="30.98"/><rect class="cls-9" x="457.81" y="784.37" width="18.87" height="30.98"/><path class="cls-9" d="M637.67,954.41H520.94c.33,3.41.64,5.61,1,6,1.32,1.67,15.43,5.13,26.93,9.45h88.83Z" transform="translate(-334.65 -162.3)"/><path class="cls-9" d="M431.72,969.89h16q-3.54-7.47-6.45-15.48h-9.59Z" transform="translate(-334.65 -162.3)"/><path class="cls-10" d="M905.53,929.18h-.07v48.47h224.8c13.39,0,36.72,5.6,36.72-7.76s-13.35-25.39-36.72-40.71Z" transform="translate(-334.65 -162.3)"/><path class="cls-8" d="M496.44,937.2s1-14.68,3.08-29.56h-3.08Z" transform="translate(-334.65 -162.3)"/><path class="cls-2" d="M1101.34,977.65H786.82c.15,12.29.4,24.42.79,36.24-1.14,12.09-1.55,22.25-1.55,30.62,0,6.09.22,11.16.54,15.44.87,11.56,2.47,16.85,2.52,17a2.22,2.22,0,0,0,2.37,1.52c4.18,43.54,11.56,75.75,23.9,84.35h359.28c30.27-11.88,37.59-69.52,39.69-132.89-47-22.87-86.8-44.05-91.31-45.39C1121,984.24,1112.71,981.58,1101.34,977.65Z" transform="translate(-334.65 -162.3)"/><path class="cls-2" d="M1239.08,591.2a555.44,555.44,0,0,0-72.1-19.58l-66.35-19.42c-10.81-11.08-28.94-27.86-31.59-27.86,0,0-53.27,82.14-68.45,80-17-2.37-58.81-61.66-58.81-61.66.22-2.13.41-4.35.6-6.62,0,0-25.37,9.14-29.31,16.3-26.64,5.44-63.75,13.67-92.7,26.64v0S766,600,739.65,626.53h86.72a17,17,0,0,1,15.93,12.93l55.14,262.63c1.49,7.11-3.23,12.93-10.5,12.93H786.87q-.09,7.07-.14,14.16H990.28c-8.75-13.39-1.91-31.1-1.91-31.1s-5.6,2.15-13.79,5.13l-4.47,1.6c-18.55,6.62-46,15.74-56.44,15.74-11.95,0,23.25-37.92,55.26-57.07q2.22-1.32,4.41-2.52c10.28-5.62,20-9,27.37-8.14C1028.15,856,1131.89,904.59,1156,916c0,0,25.35,4.55,60,11.55.43-15,1.15-29,2.5-41.16.9-8.07,1.79-16,2.68-23.8,2.09-.22,4.18-.43,6.27-.67,27.93-3.23,55.69-8.66,83.27-14.71,17.57-3.85,36.25-8.38,53.61-15.41a158.78,158.78,0,0,0,15.36-7.12C1325.7,697,1275.14,603.74,1239.08,591.2Z" transform="translate(-334.65 -162.3)"/><path class="cls-11" d="M1000.59,604.38s52.06,64.79,58.59,63,50.35-102.66,49.53-105.91c-.24-1-3.53-4.65-8.08-9.32-10.81-11.08-28.94-27.86-31.59-27.86C1069,524.34,1015.76,606.48,1000.59,604.38Z" transform="translate(-334.65 -162.3)"/><path class="cls-11" d="M906.52,656.65c6.09.77,84.18-53.13,94.07-52.27-17-2.37-58.81-61.66-58.81-61.66.22-2.13.41-4.35.6-6.62,0,0-25.37,9.14-29.31,16.3h0S900.43,655.87,906.52,656.65Z" transform="translate(-334.65 -162.3)"/><path class="cls-12" d="M1131.47,791.9H1024.18v21.39h107.29ZM1127,808.79h-98.28V796.4H1127Z" transform="translate(-334.65 -162.3)"/><path class="cls-12" d="M965.68,1042.51c-4.58,34.19-9.6,69.13-9.61,90.72,0,8.29.65,14.55,2.76,18.64a2.25,2.25,0,0,0,4-2.11c-1.43-2.56-2.27-8.56-2.24-16.53,0-21,5-56,9.57-90.13,2.19-16.32,3.57-39.38,4.25-65.45H969.9C969.22,1003.61,967.83,1026.47,965.68,1042.51Z" transform="translate(-334.65 -162.3)"/><path class="cls-12" d="M969.25,774.38c0-18.94,1.15-31.9,2.29-40.07.57-4.1,1.14-7,1.56-8.85.21-.93.38-1.6.5-2l.13-.47,0-.11a2.25,2.25,0,1,0-4.27-1.4h0c-.1.29-4.74,14.67-4.74,52.92,0,12.31.48,27.1,1.75,44.68,1,13.81,1.81,28.84,2.43,44.42q2.22-1.32,4.41-2.52c-.61-14.79-1.4-29.05-2.35-42.22C969.73,801.25,969.25,786.58,969.25,774.38Z" transform="translate(-334.65 -162.3)"/><path class="cls-12" d="M974.87,929.18c0-8.61-.13-17.29-.29-26l-4.47,1.6q.23,12.24.26,24.37Z" transform="translate(-334.65 -162.3)"/><path class="cls-12" d="M881.42,1148.9h0s-.51-.31-1.46-.93a194.89,194.89,0,0,1-20.32-15.28c-8.56-7.38-17.18-16.54-20.84-25.14a2.25,2.25,0,1,0-4.14,1.78c4.83,11.16,15.91,21.82,25.77,29.92a197.54,197.54,0,0,0,18.62,13.48,2.25,2.25,0,0,0,2.37-3.83Z" transform="translate(-334.65 -162.3)"/><path class="cls-12" d="M926.72,1149.38s-.25-.3-.73-.92c-3.4-4.31-17.68-23.47-25.26-47.68a2.25,2.25,0,0,0-4.3,1.34c9,28.66,26.74,50,26.83,50.13a2.25,2.25,0,1,0,3.47-2.87Z" transform="translate(-334.65 -162.3)"/><path class="cls-12" d="M1067.24,1117.47c-14,10.89-37.29,31.65-37.31,31.67a2.25,2.25,0,1,0,3,3.36h0s5.81-5.19,13.36-11.72,16.83-14.41,23.71-19.76a2.25,2.25,0,0,0-2.76-3.55Z" transform="translate(-334.65 -162.3)"/><path class="cls-12" d="M1103.89,1151.92a2.26,2.26,0,0,0,3.07.86h0l21-11.74c11.7-6.54,25.84-14.43,35.55-19.83a2.25,2.25,0,1,0-2.18-3.94c-19.45,10.81-56.55,31.58-56.55,31.58A2.26,2.26,0,0,0,1103.89,1151.92Z" transform="translate(-334.65 -162.3)"/><path class="cls-12" d="M793.42,1075.64h0l-.1-.36c-.51-1.92-2.76-11.42-2.76-30.77a352.63,352.63,0,0,1,3-43.21c1.09-8.88,2.16-16.6,3.2-23.65h-4.55c-1,6.9-2,14.44-3.12,23.09-.57,4.63-1,9-1.43,13.15-1.14,12.09-1.55,22.25-1.55,30.62,0,6.09.22,11.16.54,15.44.87,11.56,2.47,16.85,2.52,17a2.22,2.22,0,0,0,2.37,1.52,2.28,2.28,0,0,0,.45,0A2.25,2.25,0,0,0,793.42,1075.64Z" transform="translate(-334.65 -162.3)"/><path class="cls-12" d="M804,929.18c.56-4.53,1.07-9.19,1.5-14.16H801c-.44,5-1,9.62-1.53,14.16Z" transform="translate(-334.65 -162.3)"/><polygon class="cls-2" points="865.67 466.39 865.67 466.39 865.67 466.39 865.67 466.39"/><path class="cls-12" d="M1216.88,860.45s-.49-1.51-1.35-4.29c-6-19.41-30.25-100.75-30.22-151.71,0-2.35.06-4.64.16-6.85h0c1.24-25.74,5.79-42.15,10-52.53a91.69,91.69,0,0,1,5.61-11.53c.75-1.33,1.39-2.39,1.87-3.31a6.63,6.63,0,0,0,.95-2.93,3,3,0,0,0-.69-1.93,3.21,3.21,0,0,0-1.57-1,2.25,2.25,0,0,0-2.81,1.51,2.19,2.19,0,0,0,.32,1.88c-.13.25-.27.54-.48.9a104.73,104.73,0,0,0-9.38,20.12c-3.72,10.85-7.22,26.41-8.28,48.59h0q-.17,3.43-.17,7.07c0,29.85,8,69.09,15.91,101s15.87,56.37,15.88,56.4a2.25,2.25,0,1,0,4.28-1.39Zm-16.57-231.76Z" transform="translate(-334.65 -162.3)"/><path class="cls-13" d="M971.56,441.3c.6-7.17-4.26-8.33-9.85-8.36h-1.65c-3.12.08-5.91,1.35-9.36,2.23a25.21,25.21,0,0,1-13.3-.11c-1.39-.35-2.69-.66-3.89-.93l-1.48-.29c-.63-.13-1.29-.27-1.87-.37s-1.1-.16-1.64-.24l-1.21-.16c-.54-.06-1-.08-1.51-.1l-.76-.06v0c-3.28-.08-5.29.61-6.44,2a9.12,9.12,0,0,0-1.14,8.34c1.26,3.29,6.74,9.88,15.28,12.88h0c.28.1.6.14.89.23a30.42,30.42,0,0,0,3.5.91,26.37,26.37,0,0,0,4.65.42,34.75,34.75,0,0,0,4.64-.35c.44-.05.87-.12,1.3-.2a36.69,36.69,0,0,0,3.61-.75c.37-.09.74-.17,1.1-.27,1.44-.41,2.85-.88,4.23-1.42.43-.17.85-.37,1.28-.56q1.41-.6,2.73-1.29c.49-.26,1-.51,1.45-.78.93-.54,1.8-1.1,2.62-1.69.49-.35.94-.7,1.39-1.06s1.09-.86,1.55-1.31l-.06,0C969.86,445.87,971.37,443.57,971.56,441.3Z" transform="translate(-334.65 -162.3)"/><path class="cls-14" d="M1310.75,847.23c-27.58,6-55.34,11.48-83.28,14.71l2.82,4.92.79,1.38c.57,1,1.13,2,1.72,3l.88,1.53,1.55,2.69,1.22,2.09.5.87h0c34.72,5.92,68.94,14.92,104.2,17.61,14.91,1.14,29.85,1.57,44.78,1.39h0c-.07-.23-.15-.46-.22-.69q-1.17-3.6-2.33-7.19l-.57-1.76c-3.32-10.22-6.59-20.24-9.69-29.63-.08-.24-.16-.48-.23-.72l-2-6.07c-.15-.47-.32-1-.47-1.43-.56-1.68-1.1-3.31-1.65-4.94-.28-.86-.57-1.72-.84-2.56-.45-1.33-.87-2.6-1.3-3.88-.36-1.07-.72-2.13-1.06-3.17l-1.14-3.36-.06-.19C1347,838.85,1328.32,843.38,1310.75,847.23Z" transform="translate(-334.65 -162.3)"/><path class="cls-15" d="M844.33,287.56s15.56,12.73,34.56,8.79c26.64-5.52,115.44-36.79,110.62-30.22S925.14,291.48,926.89,297s91.09,3.31,132.69-22.09c0,0-2.63,26.28,0,45.11s17.64,57.06,23.71,68.46c3.23,6.06,5.36,7.36,7,6.11,1.48-1.1,2.62-4.16,3.85-7.76.77-2.26,4.85-12,10-25.52.85-2.24,1.73-4.57,2.62-7,7.42-2.47,15.45-1,19,13.78,8.55,35.65-21.75,57.74-40.48,51a279.42,279.42,0,0,1-9.08,31.35s-3.18,5.72-11.08,13.91c.69,10.23,1.21,18.87,1.7,27,17.85-9.52,74.07-84.85,79.47-112.86,18-93.1-29.17-144.83-29.17-144.83l0,.06c-14-16.15-33.81-18.83-33.81-18.83s-15.83-29.34-32-39.85-54-13.14-88.9-12.71-77.51,17.08-97.22,39.4a187.06,187.06,0,0,0-20.43,27.35V229c-13.42,19-22.49,52.42-24.24,72.13s19.71,72.69,22.19,70.48c0,0,0,0,0,0C840.48,341,840.86,309.73,844.33,287.56Z" transform="translate(-334.65 -162.3)"/><path class="cls-14" d="M968.48,554a195.36,195.36,0,0,0,38.62,4.53,84.33,84.33,0,0,0,13.69-1,145.27,145.27,0,0,0,30.81-16.64c5.6-3.88,11.57-10.88,17.44-16.54-.93-11.85-1.55-22-2.22-33-.49-8.13-1-16.77-1.7-27-15.39,15.95-48.75,41.24-111.74,51.9a16.26,16.26,0,0,1-5.72-.23c-1.36-.37-2.66-.77-4-1.17-.33,7.33-.75,14.56-1.3,21.24-.19,2.27-.38,4.49-.6,6.62C950.33,547.46,958.53,551.92,968.48,554Z" transform="translate(-334.65 -162.3)"/><path class="cls-16" d="M1106.64,402.78c5.12-11.48,11.17-13.87,10.42-27.53,0,0-1.64-13.52-12.92-14-5.11,13.48-9.19,23.26-10,25.52-1.23,3.6-2.37,6.66-3.85,7.76-1,5.91-2.21,11.7-3.43,17.36C1092.2,415.38,1102.31,412.5,1106.64,402.78Z" transform="translate(-334.65 -162.3)"/><path class="cls-15" d="M983.69,335.69c9.17,2.43,13.34-7,32.44.29,0,0,4.44,3,5.74-1.31s-15.1-20.17-40.11-6.8C981.76,327.87,975.22,333.46,983.69,335.69Z" transform="translate(-334.65 -162.3)"/><path class="cls-15" d="M878.31,341.61c1.13,4.35,4.87,1.35,4.87,1.35,16.09-7.21,19.66,2.27,27.39-.1,7.14-2.18,1.58-7.8,1.58-7.8C891,321.54,877.19,337.26,878.31,341.61Z" transform="translate(-334.65 -162.3)"/><path class="cls-17" d="M986.41,427.42a40.54,40.54,0,1,0,42.09-38.93A40.54,40.54,0,0,0,986.41,427.42Z" transform="translate(-334.65 -162.3)"/><path class="cls-17" d="M871,463.49a40.54,40.54,0,1,0-26.23-70h0c0,.14,0,.26,0,.39.5,4.33,1,8.61,1.66,12.78,0,0,0,.06,0,.09.56,3.86,1.18,7.6,1.83,11.26.17,1,.35,1.91.53,2.86q.78,4.22,1.65,8.22c.21.95.41,1.92.62,2.85.78,3.41,1.59,6.72,2.45,9.81,0,0,1.24,5,6,12.65a84.75,84.75,0,0,0,6.1,8.51A40.91,40.91,0,0,0,871,463.49Z" transform="translate(-334.65 -162.3)"/><path class="cls-18" d="M927.9,411.89c3.84,5,10.28,7.37,10.45,7.5a2.68,2.68,0,0,0,2-5h0l-.38-.16a27.17,27.17,0,0,1-5.5-3.29,12.47,12.47,0,0,1-2.58-2.69,4.69,4.69,0,0,1-.91-2.63l.16-1.07h0c1-3.42,2.78-5.95,4.8-9a31.93,31.93,0,0,0,5.17-11.8h0a47.58,47.58,0,0,0,.72-8.76,90.36,90.36,0,0,0-4.08-26.11,2.67,2.67,0,1,0-5.09,1.62A85.36,85.36,0,0,1,936.48,375a41.58,41.58,0,0,1-.62,7.72h0a26.48,26.48,0,0,1-4.4,9.92c-1.91,2.93-4.16,6-5.45,10.44a9.13,9.13,0,0,0-.38,2.59A10.33,10.33,0,0,0,927.9,411.89Z" transform="translate(-334.65 -162.3)"/><polygon class="cls-18" points="591.36 240.77 591.36 240.76 591.37 240.76 591.36 240.77"/><path class="cls-15" d="M897.87,368.55c-3.49,0-6.32,4.46-6.32,9.95s2.83,10,6.32,10,6.33-4.46,6.33-10S901.37,368.55,897.87,368.55Z" transform="translate(-334.65 -162.3)"/><path class="cls-15" d="M1004.3,381.61c0-5.5-2.84-10-6.33-10s-6.33,4.46-6.33,10,2.83,10,6.33,10S1004.3,387.11,1004.3,381.61Z" transform="translate(-334.65 -162.3)"/><path class="cls-13" d="M960.14,432.94h-.08c-3.12.08-5.91,1.35-9.36,2.23,3.45-.88,6.24-2.15,9.36-2.23Z" transform="translate(-334.65 -162.3)"/><path class="cls-13" d="M925.8,433c.49,0,1,.05,1.51.11C926.77,433,926.29,433,925.8,433Z" transform="translate(-334.65 -162.3)"/><path class="cls-13" d="M932,433.84l1.47.29C933,434,932.53,433.94,932,433.84Z" transform="translate(-334.65 -162.3)"/><path class="cls-13" d="M933.63,456.4a27.16,27.16,0,0,0,3.5.91A30.42,30.42,0,0,1,933.63,456.4Z" transform="translate(-334.65 -162.3)"/><path class="cls-13" d="M928.52,433.23c.54.08,1.06.14,1.64.24C929.57,433.37,929.06,433.31,928.52,433.23Z" transform="translate(-334.65 -162.3)"/><path class="cls-13" d="M957.94,454.18c-.43.19-.85.39-1.28.56C957.1,454.57,957.51,454.37,957.94,454.18Z" transform="translate(-334.65 -162.3)"/><path class="cls-13" d="M966.13,449.36c-.44.36-.9.71-1.38,1.06C965.23,450.07,965.68,449.72,966.13,449.36Z" transform="translate(-334.65 -162.3)"/><path class="cls-13" d="M947.72,457.18c-.43.08-.86.15-1.3.2C946.86,457.33,947.29,457.26,947.72,457.18Z" transform="translate(-334.65 -162.3)"/><path class="cls-13" d="M962.12,452.11c-.47.27-1,.52-1.45.78C961.16,452.63,961.65,452.38,962.12,452.11Z" transform="translate(-334.65 -162.3)"/><path class="cls-13" d="M952.43,456.16c-.36.1-.73.18-1.1.27C951.7,456.34,952.06,456.27,952.43,456.16Z" transform="translate(-334.65 -162.3)"/><path class="cls-18" d="M1277.36,943.35h0s6,1.24,15.37,3.38c14.13,3.21,36,8.46,57.21,14.6s41.62,13.21,52.47,19.77a2.67,2.67,0,1,0,2.76-4.58c-7.89-4.74-19.63-9.41-33-13.88-39.89-13.34-93.72-24.51-93.77-24.52a2.67,2.67,0,0,0-1.09,5.23Z" transform="translate(-334.65 -162.3)"/><path class="cls-19" d="M941.78,457.73a34.75,34.75,0,0,0,4.64-.35c.44-.05.87-.12,1.3-.2a36.69,36.69,0,0,0,3.61-.75c.37-.09.74-.17,1.1-.27,1.44-.41,2.86-.88,4.23-1.42.43-.17.85-.37,1.28-.56q1.41-.6,2.73-1.29c.49-.26,1-.51,1.45-.78.93-.54,1.8-1.1,2.63-1.69.48-.35.94-.7,1.38-1.06s1.08-.86,1.55-1.31l-.06,0c-6.06-2-24.43-6.34-34.87,8.13h0c.29.1.6.14.89.23a30.42,30.42,0,0,0,3.5.91A26.37,26.37,0,0,0,941.78,457.73Z" transform="translate(-334.65 -162.3)"/><path class="cls-20" d="M943.78,443.27a20.48,20.48,0,0,0,17.93-10.33h-1.65c-3.12.08-5.91,1.35-9.36,2.23a25.21,25.21,0,0,1-13.3-.11q-2.08-.53-3.9-.93l-1.47-.29c-.63-.13-1.29-.27-1.87-.37s-1.1-.16-1.64-.24l-1.21-.16c-.54-.06-1-.08-1.51-.11l-.76,0v0C927.68,436.28,934.4,443.44,943.78,443.27Z" transform="translate(-334.65 -162.3)"/><rect class="cls-9" x="432.34" y="745.34" width="12.68" height="39.02"/></svg>